<svg xmlns="http://www.w3.org/2000/svg" version="1.1" xmlns:xlink="http://www.w3.org/1999/xlink" xmlns:svgjs="http://svgjs.dev/svgjs" width="1500" height="1500" viewBox="0 0 1500 1500"><rect width="1500" height="1500" fill="#000000"></rect><g transform="matrix(0.6666666666666666,0,0,0.6666666666666666,249.39393939393932,629.480422606105)"><svg viewBox="0 0 396 96" data-background-color="#ffffff" preserveAspectRatio="xMidYMid meet" height="363" width="1500" xmlns="http://www.w3.org/2000/svg" xmlns:xlink="http://www.w3.org/1999/xlink"><g id="tight-bounds" transform="matrix(1,0,0,1,0.24000000000003752,-0.190580868537495)"><svg viewBox="0 0 395.5199999999999 96.38116173707498" height="96.38116173707498" width="395.5199999999999"><g><svg viewBox="0 0 570.2408475668725 138.95751253648226" height="96.38116173707498" width="395.5199999999999"><g><rect width="5.735345920070988" height="117.35487403291147" x="153.9715070916419" y="10.801319251785394" fill="#ffffff" opacity="1" stroke-width="0" stroke="transparent" fill-opacity="1" class="rect-qz-0" data-fill-palette-color="primary" rx="1%" id="qz-0" data-palette-color="#0074d9"></rect></g><g transform="matrix(1,0,0,1,174.72084756687255,11.093246799130938)"><svg viewBox="0 0 395.52 116.77101893822038" height="116.77101893822038" width="395.52"><g id="textblocktransform"><svg viewBox="0 0 395.52 116.77101893822038" height="116.77101893822038" width="395.52" id="textblock"><g><svg viewBox="0 0 395.52 63.598140239412956" height="63.598140239412956" width="395.52"><g transform="matrix(1,0,0,1,0,0)"><svg width="395.52" viewBox="3.75 -37.1 236.31389160156252 38" height="63.598140239412956" data-palette-color="#0074d9"><g transform="matrix(1,0,0,1,0,0)"><g><svg width="16.815927734375002" viewBox="1.78 -36.36 74.21 36.36" height="8.239" data-palette-color="#0074d9" id="scriptelement" x="223.2479638671875" y="-37.1"><path d="M12.91-30.02L1.78-30.02 1.78-36.36 31.64-36.36 31.64-30.02 20.51-30.02 20.51 0 12.91 0 12.91-30.02ZM36.57 0L36.57-36.36 46.06-36.36 56.07-11.93 56.5-11.93 66.51-36.36 75.99-36.36 75.99 0 68.53 0 68.53-23.67 68.23-23.67 58.82-0.18 53.74-0.18 44.33-23.76 44.03-23.76 44.03 0 36.57 0Z" opacity="1" transform="matrix(1,0,0,1,0,0)" fill="#ffffff" class="undefined-123" data-fill-palette-color="primary" id="yy-123"></path></svg></g></g><path d="M28.6 0L21.8 0 13.8-13.9 9.45-13.9 9.45 0 3.75 0 3.75-34.75 15.75-34.75Q19.75-34.75 22.53-33.35 25.3-31.95 26.68-29.6 28.05-27.25 28.05-24.35L28.05-24.35Q28.05-20.95 26.08-18.18 24.1-15.4 20-14.4L20-14.4 28.6 0ZM9.45-30.1L9.45-18.45 15.75-18.45Q18.95-18.45 20.58-20.05 22.2-21.65 22.2-24.35L22.2-24.35Q22.2-27.05 20.6-28.58 19-30.1 15.75-30.1L15.75-30.1 9.45-30.1ZM41.05-34.75L41.05-4.6 52.8-4.6 52.8 0 35.35 0 35.35-34.75 41.05-34.75ZM79.9-36.3L79.9-32.05 66 0 60.25 0 74.3-31.45 55.8-31.45 55.8-36.3 79.9-36.3ZM90.94-19.05Q85.74-21.65 85.74-27.25L85.74-27.25Q85.74-29.95 87.09-32.2 88.44-34.45 91.14-35.77 93.84-37.1 97.74-37.1L97.74-37.1Q101.59-37.1 104.32-35.77 107.04-34.45 108.39-32.2 109.74-29.95 109.74-27.25L109.74-27.25Q109.74-24.45 108.32-22.33 106.89-20.2 104.54-19.05L104.54-19.05Q107.39-18 109.04-15.63 110.69-13.25 110.69-10.05L110.69-10.05Q110.69-6.8 109.04-4.3 107.39-1.8 104.44-0.45 101.49 0.9 97.74 0.9L97.74 0.9Q93.99 0.9 91.07-0.45 88.14-1.8 86.49-4.3 84.84-6.8 84.84-10.05L84.84-10.05Q84.84-13.3 86.49-15.65 88.14-18 90.94-19.05L90.94-19.05ZM104.29-26.55Q104.29-29.35 102.54-30.85 100.79-32.35 97.74-32.35L97.74-32.35Q94.74-32.35 92.99-30.85 91.24-29.35 91.24-26.5L91.24-26.5Q91.24-24 93.07-22.43 94.89-20.85 97.74-20.85L97.74-20.85Q100.59-20.85 102.44-22.45 104.29-24.05 104.29-26.55L104.29-26.55ZM97.74-16.55Q94.44-16.55 92.37-14.93 90.29-13.3 90.29-10.25L90.29-10.25Q90.29-7.4 92.29-5.63 94.29-3.85 97.74-3.85L97.74-3.85Q101.14-3.85 103.12-5.65 105.09-7.45 105.09-10.25L105.09-10.25Q105.09-13.25 103.07-14.9 101.04-16.55 97.74-16.55L97.74-16.55ZM136.64-30.15L123.14-30.15 123.14-19.95 135.14-19.95 135.14-15.3 123.14-15.3 123.14-4.65 136.64-4.65 136.64 0 117.44 0 117.44-34.8 136.64-34.8 136.64-30.15ZM174.14-34.75L180.24-34.75 180.24 0 174.54 0 174.54-23.8 163.94 0 159.99 0 149.34-23.8 149.34 0 143.64 0 143.64-34.75 149.79-34.75 161.99-7.5 174.14-34.75ZM187.69-34.75L193.39-34.75 193.39-12.6Q193.39-8.65 195.46-6.65 197.54-4.65 201.24-4.65L201.24-4.65Q204.99-4.65 207.06-6.65 209.14-8.65 209.14-12.6L209.14-12.6 209.14-34.75 214.84-34.75 214.84-12.7Q214.84-8.45 212.99-5.5 211.14-2.55 208.04-1.1 204.94 0.35 201.19 0.35L201.19 0.35Q197.44 0.35 194.36-1.1 191.29-2.55 189.49-5.5 187.69-8.45 187.69-12.7L187.69-12.7 187.69-34.75Z" opacity="1" transform="matrix(1,0,0,1,0,0)" fill="#ffffff" class="wordmark-text-0" data-fill-palette-color="primary" id="text-0"></path></svg></g></svg></g><g transform="matrix(1,0,0,1,0,78.61213479457261)"><svg viewBox="0 0 139.97310109886627 38.158884143647775" height="38.158884143647775" width="139.97310109886627"><g transform="matrix(1,0,0,1,0,0)"><svg width="139.97310109886627" viewBox="2.85 -47.1 203.93 55.6" height="38.158884143647775" data-palette-color="#0074d9"><path d="M14.9 0.35Q11.45 0.35 8.72-0.88 6-2.1 4.45-4.28 2.9-6.45 2.85-9.3L2.85-9.3 7.7-9.3Q7.95-6.85 9.73-5.18 11.5-3.5 14.9-3.5L14.9-3.5Q18.15-3.5 20.03-5.13 21.9-6.75 21.9-9.3L21.9-9.3Q21.9-11.3 20.8-12.55 19.7-13.8 18.05-14.45 16.4-15.1 13.6-15.85L13.6-15.85Q10.15-16.75 8.08-17.65 6-18.55 4.53-20.48 3.05-22.4 3.05-25.65L3.05-25.65Q3.05-28.5 4.5-30.7 5.95-32.9 8.58-34.1 11.2-35.3 14.6-35.3L14.6-35.3Q19.5-35.3 22.63-32.85 25.75-30.4 26.15-26.35L26.15-26.35 21.15-26.35Q20.9-28.35 19.05-29.88 17.2-31.4 14.15-31.4L14.15-31.4Q11.3-31.4 9.5-29.93 7.7-28.45 7.7-25.8L7.7-25.8Q7.7-23.9 8.78-22.7 9.85-21.5 11.43-20.88 13-20.25 15.85-19.45L15.85-19.45Q19.3-18.5 21.4-17.57 23.5-16.65 25-14.73 26.5-12.8 26.5-9.5L26.5-9.5Q26.5-6.95 25.15-4.7 23.8-2.45 21.15-1.05 18.5 0.35 14.9 0.35L14.9 0.35ZM36.05-32L31.25-32 31.25-36.15 40.65-36.15 40.65 0 36.05 0 36.05-32ZM61.64-47.1L66.19-47.1 52.49 8.5 47.99 8.5 61.64-47.1ZM84.04 0.35Q80.59 0.35 77.87-0.88 75.14-2.1 73.59-4.28 72.04-6.45 71.99-9.3L71.99-9.3 76.84-9.3Q77.09-6.85 78.87-5.18 80.64-3.5 84.04-3.5L84.04-3.5Q87.29-3.5 89.17-5.13 91.04-6.75 91.04-9.3L91.04-9.3Q91.04-11.3 89.94-12.55 88.84-13.8 87.19-14.45 85.54-15.1 82.74-15.85L82.74-15.85Q79.29-16.75 77.22-17.65 75.14-18.55 73.67-20.48 72.19-22.4 72.19-25.65L72.19-25.65Q72.19-28.5 73.64-30.7 75.09-32.9 77.72-34.1 80.34-35.3 83.74-35.3L83.74-35.3Q88.64-35.3 91.77-32.85 94.89-30.4 95.29-26.35L95.29-26.35 90.29-26.35Q90.04-28.35 88.19-29.88 86.34-31.4 83.29-31.4L83.29-31.4Q80.44-31.4 78.64-29.93 76.84-28.45 76.84-25.8L76.84-25.8Q76.84-23.9 77.92-22.7 78.99-21.5 80.57-20.88 82.14-20.25 84.99-19.45L84.99-19.45Q88.44-18.5 90.54-17.57 92.64-16.65 94.14-14.73 95.64-12.8 95.64-9.5L95.64-9.5Q95.64-6.95 94.29-4.7 92.94-2.45 90.29-1.05 87.64 0.35 84.04 0.35L84.04 0.35ZM101.04-3.65Q107.39-8.75 110.99-12.03 114.59-15.3 117.07-18.88 119.54-22.45 119.54-25.9L119.54-25.9Q119.54-29.15 117.97-31.03 116.39-32.9 112.89-32.9L112.89-32.9Q109.49-32.9 107.62-30.78 105.74-28.65 105.59-25.1L105.59-25.1 101.19-25.1Q101.39-30.7 104.59-33.75 107.79-36.8 112.84-36.8L112.84-36.8Q117.99-36.8 121.02-33.95 124.04-31.1 124.04-26.1L124.04-26.1Q124.04-21.95 121.57-18.03 119.09-14.1 115.94-11.13 112.79-8.15 107.89-4.2L107.89-4.2 125.09-4.2 125.09-0.4 101.04-0.4 101.04-3.65ZM143.54-47.1L148.09-47.1 134.39 8.5 129.89 8.5 143.54-47.1ZM165.94 0.35Q162.49 0.35 159.76-0.88 157.04-2.1 155.49-4.28 153.94-6.45 153.89-9.3L153.89-9.3 158.74-9.3Q158.99-6.85 160.76-5.18 162.54-3.5 165.94-3.5L165.94-3.5Q169.19-3.5 171.06-5.13 172.94-6.75 172.94-9.3L172.94-9.3Q172.94-11.3 171.84-12.55 170.74-13.8 169.09-14.45 167.44-15.1 164.64-15.85L164.64-15.85Q161.19-16.75 159.11-17.65 157.04-18.55 155.56-20.48 154.09-22.4 154.09-25.65L154.09-25.65Q154.09-28.5 155.54-30.7 156.99-32.9 159.61-34.1 162.24-35.3 165.64-35.3L165.64-35.3Q170.54-35.3 173.66-32.85 176.79-30.4 177.19-26.35L177.19-26.35 172.19-26.35Q171.94-28.35 170.09-29.88 168.24-31.4 165.19-31.4L165.19-31.4Q162.34-31.4 160.54-29.93 158.74-28.45 158.74-25.8L158.74-25.8Q158.74-23.9 159.81-22.7 160.89-21.5 162.46-20.88 164.04-20.25 166.89-19.45L166.89-19.45Q170.34-18.5 172.44-17.57 174.54-16.65 176.04-14.73 177.54-12.8 177.54-9.5L177.54-9.5Q177.54-6.95 176.19-4.7 174.84-2.45 172.19-1.05 169.54 0.35 165.94 0.35L165.94 0.35ZM183.38-27.05Q183.73-31.65 186.93-34.25 190.13-36.85 195.23-36.85L195.23-36.85Q198.63-36.85 201.11-35.63 203.58-34.4 204.86-32.3 206.13-30.2 206.13-27.55L206.13-27.55Q206.13-24.45 204.36-22.2 202.58-19.95 199.73-19.3L199.73-19.3 199.73-19.05Q202.98-18.25 204.88-15.9 206.78-13.55 206.78-9.75L206.78-9.75Q206.78-6.9 205.48-4.63 204.18-2.35 201.58-1.05 198.98 0.25 195.33 0.25L195.33 0.25Q190.03 0.25 186.63-2.53 183.23-5.3 182.83-10.4L182.83-10.4 187.23-10.4Q187.58-7.4 189.68-5.5 191.78-3.6 195.28-3.6L195.28-3.6Q198.78-3.6 200.61-5.43 202.43-7.25 202.43-10.15L202.43-10.15Q202.43-13.9 199.93-15.55 197.43-17.2 192.38-17.2L192.38-17.2 191.23-17.2 191.23-21 192.43-21Q197.03-21.05 199.38-22.53 201.73-24 201.73-27.1L201.73-27.1Q201.73-29.75 200.01-31.35 198.28-32.95 195.08-32.95L195.08-32.95Q191.98-32.95 190.08-31.35 188.18-29.75 187.83-27.05L187.83-27.05 183.38-27.05Z" opacity="1" transform="matrix(1,0,0,1,0,0)" fill="#ffffff" class="slogan-text-1" data-fill-palette-color="secondary" id="text-1"></path></svg></g></svg></g></svg></g></svg></g><g><svg viewBox="0 0 138.95751253648226 138.95751253648226" height="138.95751253648226" width="138.95751253648226"><g><svg xmlns="http://www.w3.org/2000/svg" xmlns:xlink="http://www.w3.org/1999/xlink" version="1.1" x="0" y="0" viewBox="2 2 28 28" enable-background="new 0 0 32 32" xml:space="preserve" height="138.95751253648226" width="138.95751253648226" class="icon-icon-0" data-fill-palette-color="accent" id="icon-0"><g fill="#3d9970" data-fill-palette-color="accent"><path d="M28 24.184V7.816C29.161 7.402 30 6.302 30 5c0-1.654-1.346-3-3-3-1.302 0-2.402 0.839-2.816 2H7.816C7.402 2.839 6.302 2 5 2 3.346 2 2 3.346 2 5c0 1.302 0.839 2.402 2 2.816v16.368C2.839 24.598 2 25.698 2 27c0 1.654 1.346 3 3 3 1.302 0 2.402-0.839 2.816-2h16.368C24.598 29.161 25.698 30 27 30c1.654 0 3-1.346 3-3C30 25.698 29.161 24.598 28 24.184zM24.184 26H7.816C7.514 25.153 6.847 24.486 6 24.184V7.816C6.847 7.514 7.514 6.847 7.816 6h16.368C24.486 6.847 25.153 7.514 26 7.816v16.368C25.153 24.486 24.486 25.153 24.184 26zM27 4c0.552 0 1 0.449 1 1s-0.448 1-1 1-1-0.449-1-1S26.448 4 27 4zM5 4c0.552 0 1 0.449 1 1S5.552 6 5 6 4 5.551 4 5 4.448 4 5 4zM5 28c-0.552 0-1-0.449-1-1s0.448-1 1-1 1 0.449 1 1S5.552 28 5 28zM27 28c-0.552 0-1-0.449-1-1s0.448-1 1-1 1 0.449 1 1S27.552 28 27 28z" fill="#ffffff" data-fill-palette-color="accent"></path><path d="M19 7h-6c-1.654 0-3 1.346-3 3v12c0 1.654 1.346 3 3 3h6c1.654 0 3-1.346 3-3V10C22 8.346 20.654 7 19 7zM20 22c0 0.551-0.448 1-1 1h-6c-0.552 0-1-0.449-1-1V10c0-0.551 0.448-1 1-1h2c0 0.552 0.448 1 1 1s1-0.448 1-1h2c0.552 0 1 0.449 1 1V22z" fill="#ffffff" data-fill-palette-color="accent"></path></g></svg></g></svg></g></svg></g><defs></defs></svg><rect width="395.5199999999999" height="96.38116173707498" fill="none" stroke="none" visibility="hidden"></rect></g></svg></g></svg>